<?xml version="1.0" encoding="UTF-8" standalone="no"?>
<!-- Created with Inkscape (http://www.inkscape.org/) -->

<svg
   xmlns:dc="http://purl.org/dc/elements/1.1/"
   xmlns:cc="http://creativecommons.org/ns#"
   xmlns:rdf="http://www.w3.org/1999/02/22-rdf-syntax-ns#"
   xmlns:svg="http://www.w3.org/2000/svg"
   xmlns="http://www.w3.org/2000/svg"
   xmlns:sodipodi="http://sodipodi.sourceforge.net/DTD/sodipodi-0.dtd"
   xmlns:inkscape="http://www.inkscape.org/namespaces/inkscape"
   width="744.09448819"
   height="1052.3622047"
   id="svg2"
   version="1.1"
   inkscape:version="0.47 r22583"
   sodipodi:docname="monoinc-all.svg">
  <defs
     id="defs4">
    <inkscape:perspective
       sodipodi:type="inkscape:persp3d"
       inkscape:vp_x="0 : 526.18109 : 1"
       inkscape:vp_y="0 : 1000 : 0"
       inkscape:vp_z="744.09448 : 526.18109 : 1"
       inkscape:persp3d-origin="372.04724 : 350.78739 : 1"
       id="perspective10" />
    <inkscape:perspective
       id="perspective2839"
       inkscape:persp3d-origin="0.5 : 0.33333333 : 1"
       inkscape:vp_z="1 : 0.5 : 1"
       inkscape:vp_y="0 : 1000 : 0"
       inkscape:vp_x="0 : 0.5 : 1"
       sodipodi:type="inkscape:persp3d" />
    <inkscape:perspective
       id="perspective3796"
       inkscape:persp3d-origin="0.5 : 0.33333333 : 1"
       inkscape:vp_z="1 : 0.5 : 1"
       inkscape:vp_y="0 : 1000 : 0"
       inkscape:vp_x="0 : 0.5 : 1"
       sodipodi:type="inkscape:persp3d" />
    <inkscape:perspective
       id="perspective3796-4"
       inkscape:persp3d-origin="0.5 : 0.33333333 : 1"
       inkscape:vp_z="1 : 0.5 : 1"
       inkscape:vp_y="0 : 1000 : 0"
       inkscape:vp_x="0 : 0.5 : 1"
       sodipodi:type="inkscape:persp3d" />
    <inkscape:perspective
       id="perspective3827"
       inkscape:persp3d-origin="0.5 : 0.33333333 : 1"
       inkscape:vp_z="1 : 0.5 : 1"
       inkscape:vp_y="0 : 1000 : 0"
       inkscape:vp_x="0 : 0.5 : 1"
       sodipodi:type="inkscape:persp3d" />
    <inkscape:perspective
       id="perspective5271"
       inkscape:persp3d-origin="0.5 : 0.33333333 : 1"
       inkscape:vp_z="1 : 0.5 : 1"
       inkscape:vp_y="0 : 1000 : 0"
       inkscape:vp_x="0 : 0.5 : 1"
       sodipodi:type="inkscape:persp3d" />
    <inkscape:perspective
       id="perspective5311"
       inkscape:persp3d-origin="0.5 : 0.33333333 : 1"
       inkscape:vp_z="1 : 0.5 : 1"
       inkscape:vp_y="0 : 1000 : 0"
       inkscape:vp_x="0 : 0.5 : 1"
       sodipodi:type="inkscape:persp3d" />
    <inkscape:perspective
       id="perspective5311-1"
       inkscape:persp3d-origin="0.5 : 0.33333333 : 1"
       inkscape:vp_z="1 : 0.5 : 1"
       inkscape:vp_y="0 : 1000 : 0"
       inkscape:vp_x="0 : 0.5 : 1"
       sodipodi:type="inkscape:persp3d" />
    <inkscape:perspective
       id="perspective5311-4"
       inkscape:persp3d-origin="0.5 : 0.33333333 : 1"
       inkscape:vp_z="1 : 0.5 : 1"
       inkscape:vp_y="0 : 1000 : 0"
       inkscape:vp_x="0 : 0.5 : 1"
       sodipodi:type="inkscape:persp3d" />
    <inkscape:perspective
       id="perspective5432"
       inkscape:persp3d-origin="0.5 : 0.33333333 : 1"
       inkscape:vp_z="1 : 0.5 : 1"
       inkscape:vp_y="0 : 1000 : 0"
       inkscape:vp_x="0 : 0.5 : 1"
       sodipodi:type="inkscape:persp3d" />
    <inkscape:perspective
       id="perspective5463"
       inkscape:persp3d-origin="0.5 : 0.33333333 : 1"
       inkscape:vp_z="1 : 0.5 : 1"
       inkscape:vp_y="0 : 1000 : 0"
       inkscape:vp_x="0 : 0.5 : 1"
       sodipodi:type="inkscape:persp3d" />
    <inkscape:perspective
       id="perspective2882"
       inkscape:persp3d-origin="0.5 : 0.33333333 : 1"
       inkscape:vp_z="1 : 0.5 : 1"
       inkscape:vp_y="0 : 1000 : 0"
       inkscape:vp_x="0 : 0.5 : 1"
       sodipodi:type="inkscape:persp3d" />
    <inkscape:perspective
       id="perspective2882-7"
       inkscape:persp3d-origin="0.5 : 0.33333333 : 1"
       inkscape:vp_z="1 : 0.5 : 1"
       inkscape:vp_y="0 : 1000 : 0"
       inkscape:vp_x="0 : 0.5 : 1"
       sodipodi:type="inkscape:persp3d" />
    <inkscape:perspective
       id="perspective2882-0"
       inkscape:persp3d-origin="0.5 : 0.33333333 : 1"
       inkscape:vp_z="1 : 0.5 : 1"
       inkscape:vp_y="0 : 1000 : 0"
       inkscape:vp_x="0 : 0.5 : 1"
       sodipodi:type="inkscape:persp3d" />
    <inkscape:perspective
       id="perspective2882-4"
       inkscape:persp3d-origin="0.5 : 0.33333333 : 1"
       inkscape:vp_z="1 : 0.5 : 1"
       inkscape:vp_y="0 : 1000 : 0"
       inkscape:vp_x="0 : 0.5 : 1"
       sodipodi:type="inkscape:persp3d" />
    <inkscape:perspective
       id="perspective2882-8"
       inkscape:persp3d-origin="0.5 : 0.33333333 : 1"
       inkscape:vp_z="1 : 0.5 : 1"
       inkscape:vp_y="0 : 1000 : 0"
       inkscape:vp_x="0 : 0.5 : 1"
       sodipodi:type="inkscape:persp3d" />
    <inkscape:perspective
       id="perspective2882-45"
       inkscape:persp3d-origin="0.5 : 0.33333333 : 1"
       inkscape:vp_z="1 : 0.5 : 1"
       inkscape:vp_y="0 : 1000 : 0"
       inkscape:vp_x="0 : 0.5 : 1"
       sodipodi:type="inkscape:persp3d" />
    <inkscape:perspective
       id="perspective2882-1"
       inkscape:persp3d-origin="0.5 : 0.33333333 : 1"
       inkscape:vp_z="1 : 0.5 : 1"
       inkscape:vp_y="0 : 1000 : 0"
       inkscape:vp_x="0 : 0.5 : 1"
       sodipodi:type="inkscape:persp3d" />
    <inkscape:perspective
       id="perspective2958"
       inkscape:persp3d-origin="0.5 : 0.33333333 : 1"
       inkscape:vp_z="1 : 0.5 : 1"
       inkscape:vp_y="0 : 1000 : 0"
       inkscape:vp_x="0 : 0.5 : 1"
       sodipodi:type="inkscape:persp3d" />
    <inkscape:perspective
       id="perspective2958-1"
       inkscape:persp3d-origin="0.5 : 0.33333333 : 1"
       inkscape:vp_z="1 : 0.5 : 1"
       inkscape:vp_y="0 : 1000 : 0"
       inkscape:vp_x="0 : 0.5 : 1"
       sodipodi:type="inkscape:persp3d" />
    <inkscape:perspective
       id="perspective2958-2"
       inkscape:persp3d-origin="0.5 : 0.33333333 : 1"
       inkscape:vp_z="1 : 0.5 : 1"
       inkscape:vp_y="0 : 1000 : 0"
       inkscape:vp_x="0 : 0.5 : 1"
       sodipodi:type="inkscape:persp3d" />
    <inkscape:perspective
       id="perspective3021"
       inkscape:persp3d-origin="0.5 : 0.33333333 : 1"
       inkscape:vp_z="1 : 0.5 : 1"
       inkscape:vp_y="0 : 1000 : 0"
       inkscape:vp_x="0 : 0.5 : 1"
       sodipodi:type="inkscape:persp3d" />
    <inkscape:perspective
       id="perspective2874"
       inkscape:persp3d-origin="0.5 : 0.33333333 : 1"
       inkscape:vp_z="1 : 0.5 : 1"
       inkscape:vp_y="0 : 1000 : 0"
       inkscape:vp_x="0 : 0.5 : 1"
       sodipodi:type="inkscape:persp3d" />
    <inkscape:perspective
       id="perspective2896"
       inkscape:persp3d-origin="0.5 : 0.33333333 : 1"
       inkscape:vp_z="1 : 0.5 : 1"
       inkscape:vp_y="0 : 1000 : 0"
       inkscape:vp_x="0 : 0.5 : 1"
       sodipodi:type="inkscape:persp3d" />
    <inkscape:perspective
       id="perspective3092"
       inkscape:persp3d-origin="0.5 : 0.33333333 : 1"
       inkscape:vp_z="1 : 0.5 : 1"
       inkscape:vp_y="0 : 1000 : 0"
       inkscape:vp_x="0 : 0.5 : 1"
       sodipodi:type="inkscape:persp3d" />
    <inkscape:perspective
       id="perspective3114"
       inkscape:persp3d-origin="0.5 : 0.33333333 : 1"
       inkscape:vp_z="1 : 0.5 : 1"
       inkscape:vp_y="0 : 1000 : 0"
       inkscape:vp_x="0 : 0.5 : 1"
       sodipodi:type="inkscape:persp3d" />
    <inkscape:perspective
       id="perspective3136"
       inkscape:persp3d-origin="0.5 : 0.33333333 : 1"
       inkscape:vp_z="1 : 0.5 : 1"
       inkscape:vp_y="0 : 1000 : 0"
       inkscape:vp_x="0 : 0.5 : 1"
       sodipodi:type="inkscape:persp3d" />
    <inkscape:perspective
       id="perspective3158"
       inkscape:persp3d-origin="0.5 : 0.33333333 : 1"
       inkscape:vp_z="1 : 0.5 : 1"
       inkscape:vp_y="0 : 1000 : 0"
       inkscape:vp_x="0 : 0.5 : 1"
       sodipodi:type="inkscape:persp3d" />
    <inkscape:perspective
       id="perspective3180"
       inkscape:persp3d-origin="0.5 : 0.33333333 : 1"
       inkscape:vp_z="1 : 0.5 : 1"
       inkscape:vp_y="0 : 1000 : 0"
       inkscape:vp_x="0 : 0.5 : 1"
       sodipodi:type="inkscape:persp3d" />
    <inkscape:perspective
       id="perspective3202"
       inkscape:persp3d-origin="0.5 : 0.33333333 : 1"
       inkscape:vp_z="1 : 0.5 : 1"
       inkscape:vp_y="0 : 1000 : 0"
       inkscape:vp_x="0 : 0.5 : 1"
       sodipodi:type="inkscape:persp3d" />
    <inkscape:perspective
       id="perspective3224"
       inkscape:persp3d-origin="0.5 : 0.33333333 : 1"
       inkscape:vp_z="1 : 0.5 : 1"
       inkscape:vp_y="0 : 1000 : 0"
       inkscape:vp_x="0 : 0.5 : 1"
       sodipodi:type="inkscape:persp3d" />
    <inkscape:perspective
       id="perspective3259"
       inkscape:persp3d-origin="0.5 : 0.33333333 : 1"
       inkscape:vp_z="1 : 0.5 : 1"
       inkscape:vp_y="0 : 1000 : 0"
       inkscape:vp_x="0 : 0.5 : 1"
       sodipodi:type="inkscape:persp3d" />
    <inkscape:perspective
       id="perspective3294"
       inkscape:persp3d-origin="0.5 : 0.33333333 : 1"
       inkscape:vp_z="1 : 0.5 : 1"
       inkscape:vp_y="0 : 1000 : 0"
       inkscape:vp_x="0 : 0.5 : 1"
       sodipodi:type="inkscape:persp3d" />
    <inkscape:perspective
       id="perspective3351"
       inkscape:persp3d-origin="0.5 : 0.33333333 : 1"
       inkscape:vp_z="1 : 0.5 : 1"
       inkscape:vp_y="0 : 1000 : 0"
       inkscape:vp_x="0 : 0.5 : 1"
       sodipodi:type="inkscape:persp3d" />
    <inkscape:perspective
       id="perspective3373"
       inkscape:persp3d-origin="0.5 : 0.33333333 : 1"
       inkscape:vp_z="1 : 0.5 : 1"
       inkscape:vp_y="0 : 1000 : 0"
       inkscape:vp_x="0 : 0.5 : 1"
       sodipodi:type="inkscape:persp3d" />
    <inkscape:perspective
       id="perspective3851"
       inkscape:persp3d-origin="0.5 : 0.33333333 : 1"
       inkscape:vp_z="1 : 0.5 : 1"
       inkscape:vp_y="0 : 1000 : 0"
       inkscape:vp_x="0 : 0.5 : 1"
       sodipodi:type="inkscape:persp3d" />
    <inkscape:perspective
       id="perspective3851-1"
       inkscape:persp3d-origin="0.5 : 0.33333333 : 1"
       inkscape:vp_z="1 : 0.5 : 1"
       inkscape:vp_y="0 : 1000 : 0"
       inkscape:vp_x="0 : 0.5 : 1"
       sodipodi:type="inkscape:persp3d" />
    <inkscape:perspective
       id="perspective3851-7"
       inkscape:persp3d-origin="0.5 : 0.33333333 : 1"
       inkscape:vp_z="1 : 0.5 : 1"
       inkscape:vp_y="0 : 1000 : 0"
       inkscape:vp_x="0 : 0.5 : 1"
       sodipodi:type="inkscape:persp3d" />
    <inkscape:perspective
       id="perspective3851-14"
       inkscape:persp3d-origin="0.5 : 0.33333333 : 1"
       inkscape:vp_z="1 : 0.5 : 1"
       inkscape:vp_y="0 : 1000 : 0"
       inkscape:vp_x="0 : 0.5 : 1"
       sodipodi:type="inkscape:persp3d" />
    <inkscape:perspective
       id="perspective3851-3"
       inkscape:persp3d-origin="0.5 : 0.33333333 : 1"
       inkscape:vp_z="1 : 0.5 : 1"
       inkscape:vp_y="0 : 1000 : 0"
       inkscape:vp_x="0 : 0.5 : 1"
       sodipodi:type="inkscape:persp3d" />
    <inkscape:perspective
       id="perspective3851-16"
       inkscape:persp3d-origin="0.5 : 0.33333333 : 1"
       inkscape:vp_z="1 : 0.5 : 1"
       inkscape:vp_y="0 : 1000 : 0"
       inkscape:vp_x="0 : 0.5 : 1"
       sodipodi:type="inkscape:persp3d" />
    <inkscape:perspective
       id="perspective3851-5"
       inkscape:persp3d-origin="0.5 : 0.33333333 : 1"
       inkscape:vp_z="1 : 0.5 : 1"
       inkscape:vp_y="0 : 1000 : 0"
       inkscape:vp_x="0 : 0.5 : 1"
       sodipodi:type="inkscape:persp3d" />
    <inkscape:perspective
       id="perspective3851-6"
       inkscape:persp3d-origin="0.5 : 0.33333333 : 1"
       inkscape:vp_z="1 : 0.5 : 1"
       inkscape:vp_y="0 : 1000 : 0"
       inkscape:vp_x="0 : 0.5 : 1"
       sodipodi:type="inkscape:persp3d" />
    <inkscape:perspective
       id="perspective3851-9"
       inkscape:persp3d-origin="0.5 : 0.33333333 : 1"
       inkscape:vp_z="1 : 0.5 : 1"
       inkscape:vp_y="0 : 1000 : 0"
       inkscape:vp_x="0 : 0.5 : 1"
       sodipodi:type="inkscape:persp3d" />
    <inkscape:perspective
       id="perspective3851-95"
       inkscape:persp3d-origin="0.5 : 0.33333333 : 1"
       inkscape:vp_z="1 : 0.5 : 1"
       inkscape:vp_y="0 : 1000 : 0"
       inkscape:vp_x="0 : 0.5 : 1"
       sodipodi:type="inkscape:persp3d" />
    <inkscape:perspective
       id="perspective3851-31"
       inkscape:persp3d-origin="0.5 : 0.33333333 : 1"
       inkscape:vp_z="1 : 0.5 : 1"
       inkscape:vp_y="0 : 1000 : 0"
       inkscape:vp_x="0 : 0.5 : 1"
       sodipodi:type="inkscape:persp3d" />
    <inkscape:perspective
       id="perspective3851-34"
       inkscape:persp3d-origin="0.5 : 0.33333333 : 1"
       inkscape:vp_z="1 : 0.5 : 1"
       inkscape:vp_y="0 : 1000 : 0"
       inkscape:vp_x="0 : 0.5 : 1"
       sodipodi:type="inkscape:persp3d" />
    <inkscape:perspective
       id="perspective3851-38"
       inkscape:persp3d-origin="0.5 : 0.33333333 : 1"
       inkscape:vp_z="1 : 0.5 : 1"
       inkscape:vp_y="0 : 1000 : 0"
       inkscape:vp_x="0 : 0.5 : 1"
       sodipodi:type="inkscape:persp3d" />
    <inkscape:perspective
       id="perspective3981"
       inkscape:persp3d-origin="0.5 : 0.33333333 : 1"
       inkscape:vp_z="1 : 0.5 : 1"
       inkscape:vp_y="0 : 1000 : 0"
       inkscape:vp_x="0 : 0.5 : 1"
       sodipodi:type="inkscape:persp3d" />
    <inkscape:perspective
       id="perspective3981-7"
       inkscape:persp3d-origin="0.5 : 0.33333333 : 1"
       inkscape:vp_z="1 : 0.5 : 1"
       inkscape:vp_y="0 : 1000 : 0"
       inkscape:vp_x="0 : 0.5 : 1"
       sodipodi:type="inkscape:persp3d" />
    <inkscape:perspective
       id="perspective3981-9"
       inkscape:persp3d-origin="0.5 : 0.33333333 : 1"
       inkscape:vp_z="1 : 0.5 : 1"
       inkscape:vp_y="0 : 1000 : 0"
       inkscape:vp_x="0 : 0.5 : 1"
       sodipodi:type="inkscape:persp3d" />
    <inkscape:perspective
       id="perspective3981-1"
       inkscape:persp3d-origin="0.5 : 0.33333333 : 1"
       inkscape:vp_z="1 : 0.5 : 1"
       inkscape:vp_y="0 : 1000 : 0"
       inkscape:vp_x="0 : 0.5 : 1"
       sodipodi:type="inkscape:persp3d" />
    <inkscape:perspective
       id="perspective3981-8"
       inkscape:persp3d-origin="0.5 : 0.33333333 : 1"
       inkscape:vp_z="1 : 0.5 : 1"
       inkscape:vp_y="0 : 1000 : 0"
       inkscape:vp_x="0 : 0.5 : 1"
       sodipodi:type="inkscape:persp3d" />
    <inkscape:perspective
       id="perspective3981-5"
       inkscape:persp3d-origin="0.5 : 0.33333333 : 1"
       inkscape:vp_z="1 : 0.5 : 1"
       inkscape:vp_y="0 : 1000 : 0"
       inkscape:vp_x="0 : 0.5 : 1"
       sodipodi:type="inkscape:persp3d" />
    <inkscape:perspective
       id="perspective4048"
       inkscape:persp3d-origin="0.5 : 0.33333333 : 1"
       inkscape:vp_z="1 : 0.5 : 1"
       inkscape:vp_y="0 : 1000 : 0"
       inkscape:vp_x="0 : 0.5 : 1"
       sodipodi:type="inkscape:persp3d" />
    <inkscape:perspective
       id="perspective4048-8"
       inkscape:persp3d-origin="0.5 : 0.33333333 : 1"
       inkscape:vp_z="1 : 0.5 : 1"
       inkscape:vp_y="0 : 1000 : 0"
       inkscape:vp_x="0 : 0.5 : 1"
       sodipodi:type="inkscape:persp3d" />
    <inkscape:perspective
       id="perspective4048-0"
       inkscape:persp3d-origin="0.5 : 0.33333333 : 1"
       inkscape:vp_z="1 : 0.5 : 1"
       inkscape:vp_y="0 : 1000 : 0"
       inkscape:vp_x="0 : 0.5 : 1"
       sodipodi:type="inkscape:persp3d" />
    <inkscape:perspective
       id="perspective4088"
       inkscape:persp3d-origin="0.5 : 0.33333333 : 1"
       inkscape:vp_z="1 : 0.5 : 1"
       inkscape:vp_y="0 : 1000 : 0"
       inkscape:vp_x="0 : 0.5 : 1"
       sodipodi:type="inkscape:persp3d" />
    <inkscape:perspective
       id="perspective4110"
       inkscape:persp3d-origin="0.5 : 0.33333333 : 1"
       inkscape:vp_z="1 : 0.5 : 1"
       inkscape:vp_y="0 : 1000 : 0"
       inkscape:vp_x="0 : 0.5 : 1"
       sodipodi:type="inkscape:persp3d" />
    <inkscape:perspective
       id="perspective4110-5"
       inkscape:persp3d-origin="0.5 : 0.33333333 : 1"
       inkscape:vp_z="1 : 0.5 : 1"
       inkscape:vp_y="0 : 1000 : 0"
       inkscape:vp_x="0 : 0.5 : 1"
       sodipodi:type="inkscape:persp3d" />
    <inkscape:perspective
       id="perspective4141"
       inkscape:persp3d-origin="0.5 : 0.33333333 : 1"
       inkscape:vp_z="1 : 0.5 : 1"
       inkscape:vp_y="0 : 1000 : 0"
       inkscape:vp_x="0 : 0.5 : 1"
       sodipodi:type="inkscape:persp3d" />
    <inkscape:perspective
       id="perspective4141-0"
       inkscape:persp3d-origin="0.5 : 0.33333333 : 1"
       inkscape:vp_z="1 : 0.5 : 1"
       inkscape:vp_y="0 : 1000 : 0"
       inkscape:vp_x="0 : 0.5 : 1"
       sodipodi:type="inkscape:persp3d" />
    <inkscape:perspective
       id="perspective4177"
       inkscape:persp3d-origin="0.5 : 0.33333333 : 1"
       inkscape:vp_z="1 : 0.5 : 1"
       inkscape:vp_y="0 : 1000 : 0"
       inkscape:vp_x="0 : 0.5 : 1"
       sodipodi:type="inkscape:persp3d" />
    <inkscape:perspective
       id="perspective4177-8"
       inkscape:persp3d-origin="0.5 : 0.33333333 : 1"
       inkscape:vp_z="1 : 0.5 : 1"
       inkscape:vp_y="0 : 1000 : 0"
       inkscape:vp_x="0 : 0.5 : 1"
       sodipodi:type="inkscape:persp3d" />
    <inkscape:perspective
       id="perspective4177-3"
       inkscape:persp3d-origin="0.5 : 0.33333333 : 1"
       inkscape:vp_z="1 : 0.5 : 1"
       inkscape:vp_y="0 : 1000 : 0"
       inkscape:vp_x="0 : 0.5 : 1"
       sodipodi:type="inkscape:persp3d" />
    <inkscape:perspective
       id="perspective4177-4"
       inkscape:persp3d-origin="0.5 : 0.33333333 : 1"
       inkscape:vp_z="1 : 0.5 : 1"
       inkscape:vp_y="0 : 1000 : 0"
       inkscape:vp_x="0 : 0.5 : 1"
       sodipodi:type="inkscape:persp3d" />
    <inkscape:perspective
       id="perspective4177-0"
       inkscape:persp3d-origin="0.5 : 0.33333333 : 1"
       inkscape:vp_z="1 : 0.5 : 1"
       inkscape:vp_y="0 : 1000 : 0"
       inkscape:vp_x="0 : 0.5 : 1"
       sodipodi:type="inkscape:persp3d" />
    <inkscape:perspective
       id="perspective4177-1"
       inkscape:persp3d-origin="0.5 : 0.33333333 : 1"
       inkscape:vp_z="1 : 0.5 : 1"
       inkscape:vp_y="0 : 1000 : 0"
       inkscape:vp_x="0 : 0.5 : 1"
       sodipodi:type="inkscape:persp3d" />
    <inkscape:perspective
       id="perspective4177-49"
       inkscape:persp3d-origin="0.5 : 0.33333333 : 1"
       inkscape:vp_z="1 : 0.5 : 1"
       inkscape:vp_y="0 : 1000 : 0"
       inkscape:vp_x="0 : 0.5 : 1"
       sodipodi:type="inkscape:persp3d" />
    <inkscape:perspective
       id="perspective4177-7"
       inkscape:persp3d-origin="0.5 : 0.33333333 : 1"
       inkscape:vp_z="1 : 0.5 : 1"
       inkscape:vp_y="0 : 1000 : 0"
       inkscape:vp_x="0 : 0.5 : 1"
       sodipodi:type="inkscape:persp3d" />
    <inkscape:perspective
       id="perspective4177-2"
       inkscape:persp3d-origin="0.5 : 0.33333333 : 1"
       inkscape:vp_z="1 : 0.5 : 1"
       inkscape:vp_y="0 : 1000 : 0"
       inkscape:vp_x="0 : 0.5 : 1"
       sodipodi:type="inkscape:persp3d" />
  </defs>
  <sodipodi:namedview
     id="base"
     pagecolor="#ffffff"
     bordercolor="#666666"
     borderopacity="1.0"
     inkscape:pageopacity="0.0"
     inkscape:pageshadow="2"
     inkscape:zoom="0.98994949"
     inkscape:cx="88.57554"
     inkscape:cy="765.87081"
     inkscape:document-units="px"
     inkscape:current-layer="layer1"
     showgrid="false"
     inkscape:window-width="1600"
     inkscape:window-height="850"
     inkscape:window-x="-8"
     inkscape:window-y="-8"
     inkscape:window-maximized="1" />
  <metadata
     id="metadata7">
    <rdf:RDF>
      <cc:Work
         rdf:about="">
        <dc:format>image/svg+xml</dc:format>
        <dc:type
           rdf:resource="http://purl.org/dc/dcmitype/StillImage" />
        <dc:title></dc:title>
      </cc:Work>
    </rdf:RDF>
  </metadata>
  <g
     inkscape:label="Layer 1"
     inkscape:groupmode="layer"
     id="layer1">
    <path
       style="fill:none;stroke:#000000;stroke-width:1;stroke-linecap:butt;stroke-linejoin:miter;stroke-opacity:1;stroke-miterlimit:4;stroke-dasharray:4,4;stroke-dashoffset:0"
       d="m 550,100 -450,0"
       id="path28161" />
    <path
       style="fill:none;stroke:#000000;stroke-width:1;stroke-linecap:butt;stroke-linejoin:miter;stroke-opacity:1;stroke-miterlimit:4;stroke-dasharray:4,4;stroke-dashoffset:0"
       d="m 550,150 -450,0"
       id="path28162" />
    <path
       style="fill:none;stroke:#000000;stroke-width:1;stroke-linecap:butt;stroke-linejoin:miter;stroke-opacity:1;stroke-miterlimit:4;stroke-dasharray:4,4;stroke-dashoffset:0"
       d="m 550,200 -450,0"
       id="path28163" />
    <path
       style="fill:none;stroke:#000000;stroke-width:1;stroke-linecap:butt;stroke-linejoin:miter;stroke-opacity:1;stroke-miterlimit:4;stroke-dasharray:4,4;stroke-dashoffset:0"
       d="m 550,250 -450,0"
       id="path28164" />
    <path
       style="fill:none;stroke:#000000;stroke-width:1;stroke-linecap:butt;stroke-linejoin:miter;stroke-opacity:1;stroke-miterlimit:4;stroke-dasharray:4,4;stroke-dashoffset:0"
       d="m 550,300 -450,0"
       id="path28165" />
    <path
       style="fill:none;stroke:#000000;stroke-width:1;stroke-linecap:butt;stroke-linejoin:miter;stroke-opacity:1;stroke-miterlimit:4;stroke-dasharray:4,4;stroke-dashoffset:0"
       d="m 550,350 -450,0"
       id="path28166" />
    <path
       style="fill:none;stroke:#000000;stroke-width:1;stroke-linecap:butt;stroke-linejoin:miter;stroke-opacity:1;stroke-miterlimit:4;stroke-dasharray:4,4;stroke-dashoffset:0"
       d="m 550,400 -450,0"
       id="path28167" />
    <path
       style="fill:none;stroke:#000000;stroke-width:1;stroke-linecap:butt;stroke-linejoin:miter;stroke-opacity:1;stroke-miterlimit:4;stroke-dasharray:4,4;stroke-dashoffset:0"
       d="m 550,450 -450,0"
       id="path28168" />
    <path
       style="fill:none;stroke:#000000;stroke-width:1;stroke-linecap:butt;stroke-linejoin:miter;stroke-miterlimit:4;stroke-opacity:1;stroke-dasharray:4, 4;stroke-dashoffset:0"
       d="m 550,498.79858 -450,0"
       id="path28169" />
    <path
       style="fill:none;stroke:#000000;stroke-width:1;stroke-linecap:butt;stroke-linejoin:miter;stroke-opacity:1;stroke-miterlimit:4;stroke-dasharray:4,4;stroke-dashoffset:0"
       d="m 550,100 0,450"
       id="pathb28161" />
    <path
       style="fill:none;stroke:#000000;stroke-width:1;stroke-linecap:butt;stroke-linejoin:miter;stroke-opacity:1;stroke-miterlimit:4;stroke-dasharray:4,4;stroke-dashoffset:0"
       d="m 500,100 0,450"
       id="pathb28162" />
    <path
       style="fill:none;stroke:#000000;stroke-width:1;stroke-linecap:butt;stroke-linejoin:miter;stroke-opacity:1;stroke-miterlimit:4;stroke-dasharray:4,4;stroke-dashoffset:0"
       d="m 450,100 0,450"
       id="pathb28163" />
    <path
       style="fill:none;stroke:#000000;stroke-width:1;stroke-linecap:butt;stroke-linejoin:miter;stroke-opacity:1;stroke-miterlimit:4;stroke-dasharray:4,4;stroke-dashoffset:0"
       d="m 400,100 0,450"
       id="pathb28164" />
    <path
       style="fill:none;stroke:#000000;stroke-width:1;stroke-linecap:butt;stroke-linejoin:miter;stroke-opacity:1;stroke-miterlimit:4;stroke-dasharray:4,4;stroke-dashoffset:0"
       d="m 350,100 0,450"
       id="pathb28165" />
    <path
       style="fill:none;stroke:#000000;stroke-width:1;stroke-linecap:butt;stroke-linejoin:miter;stroke-opacity:1;stroke-miterlimit:4;stroke-dasharray:4,4;stroke-dashoffset:0"
       d="m 300,100 0,450"
       id="pathb28166" />
    <path
       style="fill:none;stroke:#000000;stroke-width:1;stroke-linecap:butt;stroke-linejoin:miter;stroke-opacity:1;stroke-miterlimit:4;stroke-dasharray:4,4;stroke-dashoffset:0"
       d="m 250,100 0,450"
       id="pathb28167" />
    <path
       style="fill:none;stroke:#000000;stroke-width:1;stroke-linecap:butt;stroke-linejoin:miter;stroke-opacity:1;stroke-miterlimit:4;stroke-dasharray:4,4;stroke-dashoffset:0"
       d="m 200,100 0,450"
       id="pathb28168" />
    <path
       style="fill:none;stroke:#000000;stroke-width:1;stroke-linecap:butt;stroke-linejoin:miter;stroke-opacity:1;stroke-miterlimit:4;stroke-dasharray:4,4;stroke-dashoffset:0"
       d="m 150,100 0,450"
       id="pathb28169" />
    <path
       style="fill:none;stroke:#000000;stroke-width:1.5;stroke-linecap:butt;stroke-linejoin:miter;stroke-miterlimit:4;stroke-opacity:1;stroke-dasharray:none;stroke-dashoffset:0"
       d="m 100,0 0,550"
       id="pathb28169-7" />
    <path
       style="fill:none;stroke:#000000;stroke-width:1.5;stroke-linecap:butt;stroke-linejoin:miter;stroke-miterlimit:4;stroke-opacity:1;stroke-dasharray:none;stroke-dashoffset:0"
       d="m 100,550 550,0"
       id="path28169-9" />
    <path
       style="fill:none;stroke:#00c800;stroke-width:5;stroke-linecap:butt;stroke-linejoin:miter;stroke-opacity:1;stroke-miterlimit:4;stroke-dasharray:none"
       d="m 100.0051,300.80869 50.50763,0 0,48.48732 100.0051,0 0,150.51273 421.23361,0"
       id="path4706" />
    <path
       transform="translate(-50.48722,148.29096)"
       d="m 465,300 a 15,15 0 1 1 -30,0 15,15 0 1 1 30,0 z"
       sodipodi:type="arc"
       style="fill:#800080;fill-opacity:1;stroke:none"
       id="path4443-5-7"
       sodipodi:cx="450"
       sodipodi:cy="300"
       sodipodi:rx="15"
       sodipodi:ry="15" />
    <path
       sodipodi:type="arc"
       style="fill:#008000;fill-opacity:1;stroke:none"
       id="path4443-6-5-1-1"
       sodipodi:cx="300"
       sodipodi:cy="400"
       sodipodi:rx="15"
       sodipodi:ry="15"
       d="m 315,400 a 15,15 0 1 1 -30,0 15,15 0 1 1 30,0 z"
       transform="translate(-150.24617,149.30622)" />
    <path
       sodipodi:type="arc"
       style="fill:#008000;fill-opacity:1;stroke:none"
       id="path4443-6-5-1-4"
       sodipodi:cx="300"
       sodipodi:cy="400"
       sodipodi:rx="15"
       sodipodi:ry="15"
       d="m 315,400 a 15,15 0 1 1 -30,0 15,15 0 1 1 30,0 z"
       transform="translate(-100.74869,149.30622)" />
    <path
       sodipodi:type="arc"
       style="fill:#008000;fill-opacity:1;stroke:none"
       id="path4443-6-5-1-9"
       sodipodi:cx="300"
       sodipodi:cy="400"
       sodipodi:rx="15"
       sodipodi:ry="15"
       d="m 315,400 a 15,15 0 1 1 -30,0 15,15 0 1 1 30,0 z"
       transform="translate(-50.997395,149.30622)" />
    <path
       sodipodi:type="arc"
       style="fill:#008000;fill-opacity:1;stroke:none"
       id="path4443-6-5-1-8"
       sodipodi:cx="300"
       sodipodi:cy="400"
       sodipodi:rx="15"
       sodipodi:ry="15"
       d="m 315,400 a 15,15 0 1 1 -30,0 15,15 0 1 1 30,0 z"
       transform="translate(0.517832,149.30622)" />
    <path
       sodipodi:type="arc"
       style="fill:#008000;fill-opacity:1;stroke:none"
       id="path4443-6-5-1-2"
       sodipodi:cx="300"
       sodipodi:cy="400"
       sodipodi:rx="15"
       sodipodi:ry="15"
       d="m 315,400 a 15,15 0 1 1 -30,0 15,15 0 1 1 30,0 z"
       transform="translate(49.005154,149.30622)" />
    <path
       sodipodi:type="arc"
       style="fill:#008000;fill-opacity:1;stroke:none"
       id="path4443-6-5-1-5"
       sodipodi:cx="300"
       sodipodi:cy="400"
       sodipodi:rx="15"
       sodipodi:ry="15"
       d="m 315,400 a 15,15 0 1 1 -30,0 15,15 0 1 1 30,0 z"
       transform="translate(99.51278,149.30622)" />
    <path
       sodipodi:type="arc"
       style="fill:#008000;fill-opacity:1;stroke:none"
       id="path4443-6-5-1-7"
       sodipodi:cx="300"
       sodipodi:cy="400"
       sodipodi:rx="15"
       sodipodi:ry="15"
       d="m 315,400 a 15,15 0 1 1 -30,0 15,15 0 1 1 30,0 z"
       transform="translate(99.51278,98.798585)" />
    <path
       transform="translate(-100.99485,149.30111)"
       d="m 465,300 a 15,15 0 1 1 -30,0 15,15 0 1 1 30,0 z"
       sodipodi:type="arc"
       style="fill:#800080;fill-opacity:1;stroke:none"
       id="path4443-5-7-5"
       sodipodi:cx="450"
       sodipodi:cy="300"
       sodipodi:rx="15"
       sodipodi:ry="15" />
    <path
       transform="translate(-99.98469,198.79858)"
       d="m 465,300 a 15,15 0 1 1 -30,0 15,15 0 1 1 30,0 z"
       sodipodi:type="arc"
       style="fill:#008000;fill-opacity:1;stroke:none"
       id="path4443-5-7-7"
       sodipodi:cx="450"
       sodipodi:cy="300"
       sodipodi:rx="15"
       sodipodi:ry="15" />
    <path
       sodipodi:type="arc"
       style="fill:#008000;fill-opacity:1;stroke:none"
       id="path4443-6-5-1-1-6"
       sodipodi:cx="300"
       sodipodi:cy="400"
       sodipodi:rx="15"
       sodipodi:ry="15"
       d="m 315,400 a 15,15 0 1 1 -30,0 15,15 0 1 1 30,0 z"
       transform="translate(-200.49997,149.30622)" />
    <path
       transform="translate(-150.99485,48.285856)"
       d="m 465,300 a 15,15 0 1 1 -30,0 15,15 0 1 1 30,0 z"
       sodipodi:type="arc"
       style="fill:#800080;fill-opacity:1;stroke:none"
       id="path4443-5-7-5-1"
       sodipodi:cx="450"
       sodipodi:cy="300"
       sodipodi:rx="15"
       sodipodi:ry="15" />
    <path
       transform="translate(-149.98469,150.31126)"
       d="m 465,300 a 15,15 0 1 1 -30,0 15,15 0 1 1 30,0 z"
       sodipodi:type="arc"
       style="fill:#800080;fill-opacity:1;stroke:none"
       id="path4443-5-7-5-7"
       sodipodi:cx="450"
       sodipodi:cy="300"
       sodipodi:rx="15"
       sodipodi:ry="15" />
    <path
       transform="translate(-200.49232,-1.2116184)"
       d="m 465,300 a 15,15 0 1 1 -30,0 15,15 0 1 1 30,0 z"
       sodipodi:type="arc"
       style="fill:#800080;fill-opacity:1;stroke:none"
       id="path4443-5-7-5-1-4"
       sodipodi:cx="450"
       sodipodi:cy="300"
       sodipodi:rx="15"
       sodipodi:ry="15" />
    <path
       transform="translate(-200.99739,99.29856)"
       d="m 465,300 a 15,15 0 1 1 -30,0 15,15 0 1 1 30,0 z"
       sodipodi:type="arc"
       style="fill:#008000;fill-opacity:1;stroke:none"
       id="path4443-5-7-7-0"
       sodipodi:cx="450"
       sodipodi:cy="300"
       sodipodi:rx="15"
       sodipodi:ry="15" />
    <path
       transform="translate(-149.9847,99.803637)"
       d="m 465,300 a 15,15 0 1 1 -30,0 15,15 0 1 1 30,0 z"
       sodipodi:type="arc"
       style="fill:#800080;fill-opacity:1;stroke:none"
       id="path4443-5-7-5-1-4-9"
       sodipodi:cx="450"
       sodipodi:cy="300"
       sodipodi:rx="15"
       sodipodi:ry="15" />
    <path
       transform="translate(-250.74869,49.296009)"
       d="m 465,300 a 15,15 0 1 1 -30,0 15,15 0 1 1 30,0 z"
       sodipodi:type="arc"
       style="fill:#008000;fill-opacity:1;stroke:none"
       id="path4443-5-7-7-0-4"
       sodipodi:cx="450"
       sodipodi:cy="300"
       sodipodi:rx="15"
       sodipodi:ry="15" />
    <path
       transform="translate(-299.48727,-51.719248)"
       d="m 465,300 a 15,15 0 1 1 -30,0 15,15 0 1 1 30,0 z"
       sodipodi:type="arc"
       style="fill:#800080;fill-opacity:1;stroke:none"
       id="path4443-5-7-5-1-4-9-8"
       sodipodi:cx="450"
       sodipodi:cy="300"
       sodipodi:rx="15"
       sodipodi:ry="15" />
    <path
       transform="translate(-300.24617,-0.20146586)"
       d="m 465,300 a 15,15 0 1 1 -30,0 15,15 0 1 1 30,0 z"
       sodipodi:type="arc"
       style="fill:#008000;fill-opacity:1;stroke:none"
       id="path4443-5-7-7-0-4-8"
       sodipodi:cx="450"
       sodipodi:cy="300"
       sodipodi:rx="15"
       sodipodi:ry="15" />
    <path
       transform="translate(-249.9898,-1.2116229)"
       d="m 465,300 a 15,15 0 1 1 -30,0 15,15 0 1 1 30,0 z"
       sodipodi:type="arc"
       style="fill:#800080;fill-opacity:1;stroke:none"
       id="path4443-5-7-5-1-4-9-8-2"
       sodipodi:cx="450"
       sodipodi:cy="300"
       sodipodi:rx="15"
       sodipodi:ry="15" />
    <path
       transform="translate(-349.9949,-51.719246)"
       d="m 465,300 a 15,15 0 1 1 -30,0 15,15 0 1 1 30,0 z"
       sodipodi:type="arc"
       style="fill:#800080;fill-opacity:1;stroke:none"
       id="path4443-5-7-5-1-4-9-8-2-4"
       sodipodi:cx="450"
       sodipodi:cy="300"
       sodipodi:rx="15"
       sodipodi:ry="15" />
    <path
       transform="translate(-350.49997,49.296009)"
       d="m 465,300 a 15,15 0 1 1 -30,0 15,15 0 1 1 30,0 z"
       sodipodi:type="arc"
       style="fill:#008000;fill-opacity:1;stroke:none"
       id="path4443-5-7-7-0-4-8-5"
       sodipodi:cx="450"
       sodipodi:cy="300"
       sodipodi:rx="15"
       sodipodi:ry="15" />
    <path
       transform="translate(-350.49997,148.79604)"
       d="m 465,300 a 15,15 0 1 1 -30,0 15,15 0 1 1 30,0 z"
       sodipodi:type="arc"
       style="fill:#008000;fill-opacity:1;stroke:none"
       id="path4443-5-7-7-0-4-8-5-1"
       sodipodi:cx="450"
       sodipodi:cy="300"
       sodipodi:rx="15"
       sodipodi:ry="15" />
    <path
       transform="translate(-200.99739,198.79858)"
       d="m 465,300 a 15,15 0 1 1 -30,0 15,15 0 1 1 30,0 z"
       sodipodi:type="arc"
       style="fill:#008000;fill-opacity:1;stroke:none"
       id="path4443-5-7-7-0-7"
       sodipodi:cx="450"
       sodipodi:cy="300"
       sodipodi:rx="15"
       sodipodi:ry="15" />
    <path
       transform="translate(-300.24617,49.296009)"
       d="m 465,300 a 15,15 0 1 1 -30,0 15,15 0 1 1 30,0 z"
       sodipodi:type="arc"
       style="fill:#008000;fill-opacity:1;stroke:none"
       id="path4443-5-7-7-0-4-8-1"
       sodipodi:cx="450"
       sodipodi:cy="300"
       sodipodi:rx="15"
       sodipodi:ry="15" />
    <path
       transform="translate(-300.24617,99.29856)"
       d="m 465,300 a 15,15 0 1 1 -30,0 15,15 0 1 1 30,0 z"
       sodipodi:type="arc"
       style="fill:#008000;fill-opacity:1;stroke:none"
       id="path4443-5-7-7-0-4-8-52"
       sodipodi:cx="450"
       sodipodi:cy="300"
       sodipodi:rx="15"
       sodipodi:ry="15" />
    <path
       transform="translate(-250.74869,99.29856)"
       d="m 465,300 a 15,15 0 1 1 -30,0 15,15 0 1 1 30,0 z"
       sodipodi:type="arc"
       style="fill:#008000;fill-opacity:1;stroke:none"
       id="path4443-5-7-7-0-4-8-6"
       sodipodi:cx="450"
       sodipodi:cy="300"
       sodipodi:rx="15"
       sodipodi:ry="15" />
    <path
       transform="translate(-350.49997,99.29856)"
       d="m 465,300 a 15,15 0 1 1 -30,0 15,15 0 1 1 30,0 z"
       sodipodi:type="arc"
       style="fill:#008000;fill-opacity:1;stroke:none"
       id="path4443-5-7-7-0-4-8-2"
       sodipodi:cx="450"
       sodipodi:cy="300"
       sodipodi:rx="15"
       sodipodi:ry="15" />
    <path
       transform="translate(-300.24617,148.79604)"
       d="m 465,300 a 15,15 0 1 1 -30,0 15,15 0 1 1 30,0 z"
       sodipodi:type="arc"
       style="fill:#008000;fill-opacity:1;stroke:none"
       id="path4443-5-7-7-0-4-8-22"
       sodipodi:cx="450"
       sodipodi:cy="300"
       sodipodi:rx="15"
       sodipodi:ry="15" />
    <path
       transform="translate(-250.74869,148.79604)"
       d="m 465,300 a 15,15 0 1 1 -30,0 15,15 0 1 1 30,0 z"
       sodipodi:type="arc"
       style="fill:#008000;fill-opacity:1;stroke:none"
       id="path4443-5-7-7-0-4-8-8"
       sodipodi:cx="450"
       sodipodi:cy="300"
       sodipodi:rx="15"
       sodipodi:ry="15" />
    <path
       transform="translate(-200.99739,148.79604)"
       d="m 465,300 a 15,15 0 1 1 -30,0 15,15 0 1 1 30,0 z"
       sodipodi:type="arc"
       style="fill:#008000;fill-opacity:1;stroke:none"
       id="path4443-5-7-7-0-4-8-7"
       sodipodi:cx="450"
       sodipodi:cy="300"
       sodipodi:rx="15"
       sodipodi:ry="15" />
    <path
       transform="translate(-200.99739,49.296009)"
       d="m 465,300 a 15,15 0 1 1 -30,0 15,15 0 1 1 30,0 z"
       sodipodi:type="arc"
       style="fill:#008000;fill-opacity:1;stroke:none"
       id="path4443-5-7-7-0-4-8-18"
       sodipodi:cx="450"
       sodipodi:cy="300"
       sodipodi:rx="15"
       sodipodi:ry="15" />
    <path
       transform="translate(-350.49997,-0.20146586)"
       d="m 465,300 a 15,15 0 1 1 -30,0 15,15 0 1 1 30,0 z"
       sodipodi:type="arc"
       style="fill:#008000;fill-opacity:1;stroke:none"
       id="path4443-5-7-7-0-4-8-27"
       sodipodi:cx="450"
       sodipodi:cy="300"
       sodipodi:rx="15"
       sodipodi:ry="15" />
    <path
       transform="translate(-350.49997,198.79858)"
       d="m 465,300 a 15,15 0 1 1 -30,0 15,15 0 1 1 30,0 z"
       sodipodi:type="arc"
       style="fill:#008000;fill-opacity:1;stroke:none"
       id="path4443-5-7-7-0-4-8-4"
       sodipodi:cx="450"
       sodipodi:cy="300"
       sodipodi:rx="15"
       sodipodi:ry="15" />
    <path
       transform="translate(-300.24617,198.79858)"
       d="m 465,300 a 15,15 0 1 1 -30,0 15,15 0 1 1 30,0 z"
       sodipodi:type="arc"
       style="fill:#008000;fill-opacity:1;stroke:none"
       id="path4443-5-7-7-0-4-8-23"
       sodipodi:cx="450"
       sodipodi:cy="300"
       sodipodi:rx="15"
       sodipodi:ry="15" />
    <path
       transform="translate(-250.74869,198.79858)"
       d="m 465,300 a 15,15 0 1 1 -30,0 15,15 0 1 1 30,0 z"
       sodipodi:type="arc"
       style="fill:#008000;fill-opacity:1;stroke:none"
       id="path4443-5-7-7-0-4-8-11"
       sodipodi:cx="450"
       sodipodi:cy="300"
       sodipodi:rx="15"
       sodipodi:ry="15" />
    <path
       transform="translate(-149.98469,198.79858)"
       d="m 465,300 a 15,15 0 1 1 -30,0 15,15 0 1 1 30,0 z"
       sodipodi:type="arc"
       style="fill:#008000;fill-opacity:1;stroke:none"
       id="path4443-5-7-7-0-4-8-74"
       sodipodi:cx="450"
       sodipodi:cy="300"
       sodipodi:rx="15"
       sodipodi:ry="15" />
    <path
       sodipodi:type="arc"
       style="fill:#008000;fill-opacity:1;stroke:none"
       id="path4443-6-5-1-2-2"
       sodipodi:cx="300"
       sodipodi:cy="400"
       sodipodi:rx="15"
       sodipodi:ry="15"
       d="m 315,400 a 15,15 0 1 1 -30,0 15,15 0 1 1 30,0 z"
       transform="translate(150.52804,98.798585)" />
    <path
       sodipodi:type="arc"
       style="fill:#008000;fill-opacity:1;stroke:none"
       id="path4443-6-5-1-2-7"
       sodipodi:cx="300"
       sodipodi:cy="400"
       sodipodi:rx="15"
       sodipodi:ry="15"
       d="m 315,400 a 15,15 0 1 1 -30,0 15,15 0 1 1 30,0 z"
       transform="translate(199.01536,98.798585)" />
    <path
       sodipodi:type="arc"
       style="fill:#008000;fill-opacity:1;stroke:none"
       id="path4443-6-5-1-2-3"
       sodipodi:cx="300"
       sodipodi:cy="400"
       sodipodi:rx="15"
       sodipodi:ry="15"
       d="m 315,400 a 15,15 0 1 1 -30,0 15,15 0 1 1 30,0 z"
       transform="translate(150.52804,149.30622)" />
    <path
       sodipodi:type="arc"
       style="fill:#008000;fill-opacity:1;stroke:none"
       id="path4443-6-5-1-2-9"
       sodipodi:cx="300"
       sodipodi:cy="400"
       sodipodi:rx="15"
       sodipodi:ry="15"
       d="m 315,400 a 15,15 0 1 1 -30,0 15,15 0 1 1 30,0 z"
       transform="translate(200.02551,149.30622)" />
    <path
       sodipodi:type="arc"
       style="fill:#008000;fill-opacity:1;stroke:none"
       id="path4443-6-5-1-2-6"
       sodipodi:cx="300"
       sodipodi:cy="400"
       sodipodi:rx="15"
       sodipodi:ry="15"
       d="m 315,400 a 15,15 0 1 1 -30,0 15,15 0 1 1 30,0 z"
       transform="translate(248.51283,149.30622)" />
    <path
       sodipodi:type="arc"
       style="fill:#008000;fill-opacity:1;stroke:none"
       id="path4443-6-5-1-2-0"
       sodipodi:cx="300"
       sodipodi:cy="400"
       sodipodi:rx="15"
       sodipodi:ry="15"
       d="m 315,400 a 15,15 0 1 1 -30,0 15,15 0 1 1 30,0 z"
       transform="translate(249.52299,98.798585)" />
    <path
       transform="translate(-1.4922686,149.30111)"
       d="m 465,300 a 15,15 0 1 1 -30,0 15,15 0 1 1 30,0 z"
       sodipodi:type="arc"
       style="fill:#ff00ff;fill-opacity:1;stroke:none"
       id="path4443-5-7-5-2"
       sodipodi:cx="450"
       sodipodi:cy="300"
       sodipodi:rx="15"
       sodipodi:ry="15" />
    <path
       transform="translate(49.015359,148.29096)"
       d="m 465,300 a 15,15 0 1 1 -30,0 15,15 0 1 1 30,0 z"
       sodipodi:type="arc"
       style="fill:#800080;fill-opacity:1;stroke:none"
       id="path4443-5-7-5-6"
       sodipodi:cx="450"
       sodipodi:cy="300"
       sodipodi:rx="15"
       sodipodi:ry="15" />
    <path
       transform="translate(100.53314,148.29096)"
       d="m 465,300 a 15,15 0 1 1 -30,0 15,15 0 1 1 30,0 z"
       sodipodi:type="arc"
       style="fill:#800080;fill-opacity:1;stroke:none"
       id="path4443-5-7-5-24"
       sodipodi:cx="450"
       sodipodi:cy="300"
       sodipodi:rx="15"
       sodipodi:ry="15" />
    <path
       sodipodi:type="arc"
       style="fill:#008000;fill-opacity:1;stroke:none"
       id="path4443-6-5-1-2-6-8"
       sodipodi:cx="300"
       sodipodi:cy="400"
       sodipodi:rx="15"
       sodipodi:ry="15"
       d="m 315,400 a 15,15 0 1 1 -30,0 15,15 0 1 1 30,0 z"
       transform="translate(299.02046,148.29606)" />
    <path
       transform="translate(-100.48722,98.793484)"
       d="m 465,300 a 15,15 0 1 1 -30,0 15,15 0 1 1 30,0 z"
       sodipodi:type="arc"
       style="fill:#ff6600;fill-opacity:1;stroke:none"
       id="path4443-5-7-6"
       sodipodi:cx="450"
       sodipodi:cy="300"
       sodipodi:rx="15"
       sodipodi:ry="15" />
    <path
       transform="translate(-49.979591,98.793484)"
       d="m 465,300 a 15,15 0 1 1 -30,0 15,15 0 1 1 30,0 z"
       sodipodi:type="arc"
       style="fill:#ff6600;fill-opacity:1;stroke:none"
       id="path4443-5-7-0"
       sodipodi:cx="450"
       sodipodi:cy="300"
       sodipodi:rx="15"
       sodipodi:ry="15" />
    <path
       transform="translate(-100.48722,50.306162)"
       d="m 465,300 a 15,15 0 1 1 -30,0 15,15 0 1 1 30,0 z"
       sodipodi:type="arc"
       style="fill:#ff6600;fill-opacity:1;stroke:none"
       id="path4443-5-7-6-9"
       sodipodi:cx="450"
       sodipodi:cy="300"
       sodipodi:rx="15"
       sodipodi:ry="15" />
    <path
       transform="translate(-150.99485,-1.2116184)"
       d="m 465,300 a 15,15 0 1 1 -30,0 15,15 0 1 1 30,0 z"
       sodipodi:type="arc"
       style="fill:#ff6600;fill-opacity:1;stroke:none"
       id="path4443-5-7-0-0-3"
       sodipodi:cx="450"
       sodipodi:cy="300"
       sodipodi:rx="15"
       sodipodi:ry="15" />
    <path
       transform="translate(-200.49232,-50.709093)"
       d="m 465,300 a 15,15 0 1 1 -30,0 15,15 0 1 1 30,0 z"
       sodipodi:type="arc"
       style="fill:#ff6600;fill-opacity:1;stroke:none"
       id="path4443-5-7-0-0-9"
       sodipodi:cx="450"
       sodipodi:cy="300"
       sodipodi:rx="15"
       sodipodi:ry="15" />
    <path
       transform="translate(-249.9898,-50.709093)"
       d="m 465,300 a 15,15 0 1 1 -30,0 15,15 0 1 1 30,0 z"
       sodipodi:type="arc"
       style="fill:#ff6600;fill-opacity:1;stroke:none"
       id="path4443-5-7-0-0-4"
       sodipodi:cx="450"
       sodipodi:cy="300"
       sodipodi:rx="15"
       sodipodi:ry="15" />
    <path
       transform="translate(-301.50758,-100.20657)"
       d="m 465,300 a 15,15 0 1 1 -30,0 15,15 0 1 1 30,0 z"
       sodipodi:type="arc"
       style="fill:#ff6600;fill-opacity:1;stroke:none"
       id="path4443-5-7-0-0-6"
       sodipodi:cx="450"
       sodipodi:cy="300"
       sodipodi:rx="15"
       sodipodi:ry="15" />
    <path
       transform="translate(-351.00505,-101.21672)"
       d="m 465,300 a 15,15 0 1 1 -30,0 15,15 0 1 1 30,0 z"
       sodipodi:type="arc"
       style="fill:#ff6600;fill-opacity:1;stroke:none"
       id="path4443-5-7-0-0-66"
       sodipodi:cx="450"
       sodipodi:cy="300"
       sodipodi:rx="15"
       sodipodi:ry="15" />
    <path
       transform="translate(-351.00505,-148.69389)"
       d="m 465,300 a 15,15 0 1 1 -30,0 15,15 0 1 1 30,0 z"
       sodipodi:type="arc"
       style="fill:#ff6600;fill-opacity:1;stroke:none"
       id="path4443-5-7-0-0-8"
       sodipodi:cx="450"
       sodipodi:cy="300"
       sodipodi:rx="15"
       sodipodi:ry="15" />
    <path
       transform="translate(-249.9898,-101.21672)"
       d="m 465,300 a 15,15 0 1 1 -30,0 15,15 0 1 1 30,0 z"
       sodipodi:type="arc"
       style="fill:#ff6600;fill-opacity:1;stroke:none"
       id="path4443-5-7-0-0-63"
       sodipodi:cx="450"
       sodipodi:cy="300"
       sodipodi:rx="15"
       sodipodi:ry="15" />
    <path
       transform="translate(-300.49742,-151.72435)"
       d="m 465,300 a 15,15 0 1 1 -30,0 15,15 0 1 1 30,0 z"
       sodipodi:type="arc"
       style="fill:#ff6600;fill-opacity:1;stroke:none"
       id="path4443-5-7-0-0-88"
       sodipodi:cx="450"
       sodipodi:cy="300"
       sodipodi:rx="15"
       sodipodi:ry="15" />
    <path
       transform="translate(-351.00505,-201.22182)"
       d="m 465,300 a 15,15 0 1 1 -30,0 15,15 0 1 1 30,0 z"
       sodipodi:type="arc"
       style="fill:#ff6600;fill-opacity:1;stroke:none"
       id="path4443-5-7-0-0-91"
       sodipodi:cx="450"
       sodipodi:cy="300"
       sodipodi:rx="15"
       sodipodi:ry="15" />
  </g>
</svg>
