<?xml version="1.0" encoding="UTF-8" standalone="no"?>
<!-- Created with Inkscape (http://www.inkscape.org/) -->

<svg
   xmlns:dc="http://purl.org/dc/elements/1.1/"
   xmlns:cc="http://creativecommons.org/ns#"
   xmlns:rdf="http://www.w3.org/1999/02/22-rdf-syntax-ns#"
   xmlns:svg="http://www.w3.org/2000/svg"
   xmlns="http://www.w3.org/2000/svg"
   xmlns:sodipodi="http://sodipodi.sourceforge.net/DTD/sodipodi-0.dtd"
   xmlns:inkscape="http://www.inkscape.org/namespaces/inkscape"
   width="744.09448819"
   height="1052.3622047"
   id="svg2"
   version="1.1"
   inkscape:version="0.47 r22583"
   sodipodi:docname="monogrow4.svg">
  <defs
     id="defs4">
    <inkscape:perspective
       sodipodi:type="inkscape:persp3d"
       inkscape:vp_x="0 : 526.18109 : 1"
       inkscape:vp_y="0 : 1000 : 0"
       inkscape:vp_z="744.09448 : 526.18109 : 1"
       inkscape:persp3d-origin="372.04724 : 350.78739 : 1"
       id="perspective10" />
    <inkscape:perspective
       id="perspective2839"
       inkscape:persp3d-origin="0.5 : 0.33333333 : 1"
       inkscape:vp_z="1 : 0.5 : 1"
       inkscape:vp_y="0 : 1000 : 0"
       inkscape:vp_x="0 : 0.5 : 1"
       sodipodi:type="inkscape:persp3d" />
    <inkscape:perspective
       id="perspective3796"
       inkscape:persp3d-origin="0.5 : 0.33333333 : 1"
       inkscape:vp_z="1 : 0.5 : 1"
       inkscape:vp_y="0 : 1000 : 0"
       inkscape:vp_x="0 : 0.5 : 1"
       sodipodi:type="inkscape:persp3d" />
    <inkscape:perspective
       id="perspective3796-4"
       inkscape:persp3d-origin="0.5 : 0.33333333 : 1"
       inkscape:vp_z="1 : 0.5 : 1"
       inkscape:vp_y="0 : 1000 : 0"
       inkscape:vp_x="0 : 0.5 : 1"
       sodipodi:type="inkscape:persp3d" />
    <inkscape:perspective
       id="perspective3827"
       inkscape:persp3d-origin="0.5 : 0.33333333 : 1"
       inkscape:vp_z="1 : 0.5 : 1"
       inkscape:vp_y="0 : 1000 : 0"
       inkscape:vp_x="0 : 0.5 : 1"
       sodipodi:type="inkscape:persp3d" />
    <inkscape:perspective
       id="perspective5271"
       inkscape:persp3d-origin="0.5 : 0.33333333 : 1"
       inkscape:vp_z="1 : 0.5 : 1"
       inkscape:vp_y="0 : 1000 : 0"
       inkscape:vp_x="0 : 0.5 : 1"
       sodipodi:type="inkscape:persp3d" />
    <inkscape:perspective
       id="perspective5311"
       inkscape:persp3d-origin="0.5 : 0.33333333 : 1"
       inkscape:vp_z="1 : 0.5 : 1"
       inkscape:vp_y="0 : 1000 : 0"
       inkscape:vp_x="0 : 0.5 : 1"
       sodipodi:type="inkscape:persp3d" />
    <inkscape:perspective
       id="perspective5311-1"
       inkscape:persp3d-origin="0.5 : 0.33333333 : 1"
       inkscape:vp_z="1 : 0.5 : 1"
       inkscape:vp_y="0 : 1000 : 0"
       inkscape:vp_x="0 : 0.5 : 1"
       sodipodi:type="inkscape:persp3d" />
    <inkscape:perspective
       id="perspective5311-4"
       inkscape:persp3d-origin="0.5 : 0.33333333 : 1"
       inkscape:vp_z="1 : 0.5 : 1"
       inkscape:vp_y="0 : 1000 : 0"
       inkscape:vp_x="0 : 0.5 : 1"
       sodipodi:type="inkscape:persp3d" />
    <inkscape:perspective
       id="perspective5432"
       inkscape:persp3d-origin="0.5 : 0.33333333 : 1"
       inkscape:vp_z="1 : 0.5 : 1"
       inkscape:vp_y="0 : 1000 : 0"
       inkscape:vp_x="0 : 0.5 : 1"
       sodipodi:type="inkscape:persp3d" />
    <inkscape:perspective
       id="perspective5463"
       inkscape:persp3d-origin="0.5 : 0.33333333 : 1"
       inkscape:vp_z="1 : 0.5 : 1"
       inkscape:vp_y="0 : 1000 : 0"
       inkscape:vp_x="0 : 0.5 : 1"
       sodipodi:type="inkscape:persp3d" />
  </defs>
  <sodipodi:namedview
     id="base"
     pagecolor="#ffffff"
     bordercolor="#666666"
     borderopacity="1.0"
     inkscape:pageopacity="0.0"
     inkscape:pageshadow="2"
     inkscape:zoom="0.98994949"
     inkscape:cx="209.28877"
     inkscape:cy="725.46471"
     inkscape:document-units="px"
     inkscape:current-layer="layer1"
     showgrid="false"
     inkscape:window-width="1600"
     inkscape:window-height="850"
     inkscape:window-x="-8"
     inkscape:window-y="-8"
     inkscape:window-maximized="1" />
  <metadata
     id="metadata7">
    <rdf:RDF>
      <cc:Work
         rdf:about="">
        <dc:format>image/svg+xml</dc:format>
        <dc:type
           rdf:resource="http://purl.org/dc/dcmitype/StillImage" />
        <dc:title />
      </cc:Work>
    </rdf:RDF>
  </metadata>
  <g
     inkscape:label="Layer 1"
     inkscape:groupmode="layer"
     id="layer1">
    <path
       style="fill:none;stroke:#000000;stroke-width:1;stroke-linecap:butt;stroke-linejoin:miter;stroke-opacity:1;stroke-miterlimit:4;stroke-dasharray:4,4;stroke-dashoffset:0"
       d="m 550,100 -450,0"
       id="path28161" />
    <path
       style="fill:none;stroke:#000000;stroke-width:1;stroke-linecap:butt;stroke-linejoin:miter;stroke-opacity:1;stroke-miterlimit:4;stroke-dasharray:4,4;stroke-dashoffset:0"
       d="m 550,150 -450,0"
       id="path28162" />
    <path
       style="fill:none;stroke:#000000;stroke-width:1;stroke-linecap:butt;stroke-linejoin:miter;stroke-opacity:1;stroke-miterlimit:4;stroke-dasharray:4,4;stroke-dashoffset:0"
       d="m 550,200 -450,0"
       id="path28163" />
    <path
       style="fill:none;stroke:#000000;stroke-width:1;stroke-linecap:butt;stroke-linejoin:miter;stroke-opacity:1;stroke-miterlimit:4;stroke-dasharray:4,4;stroke-dashoffset:0"
       d="m 550,250 -450,0"
       id="path28164" />
    <path
       style="fill:none;stroke:#000000;stroke-width:1;stroke-linecap:butt;stroke-linejoin:miter;stroke-opacity:1;stroke-miterlimit:4;stroke-dasharray:4,4;stroke-dashoffset:0"
       d="m 550,300 -450,0"
       id="path28165" />
    <path
       style="fill:none;stroke:#000000;stroke-width:1;stroke-linecap:butt;stroke-linejoin:miter;stroke-opacity:1;stroke-miterlimit:4;stroke-dasharray:4,4;stroke-dashoffset:0"
       d="m 550,350 -450,0"
       id="path28166" />
    <path
       style="fill:none;stroke:#000000;stroke-width:1;stroke-linecap:butt;stroke-linejoin:miter;stroke-opacity:1;stroke-miterlimit:4;stroke-dasharray:4,4;stroke-dashoffset:0"
       d="m 550,400 -450,0"
       id="path28167" />
    <path
       style="fill:none;stroke:#000000;stroke-width:1;stroke-linecap:butt;stroke-linejoin:miter;stroke-opacity:1;stroke-miterlimit:4;stroke-dasharray:4,4;stroke-dashoffset:0"
       d="m 550,450 -450,0"
       id="path28168" />
    <path
       style="fill:none;stroke:#000000;stroke-width:1;stroke-linecap:butt;stroke-linejoin:miter;stroke-opacity:1;stroke-miterlimit:4;stroke-dasharray:4,4;stroke-dashoffset:0"
       d="m 550,500 -450,0"
       id="path28169" />
    <path
       style="fill:none;stroke:#000000;stroke-width:1;stroke-linecap:butt;stroke-linejoin:miter;stroke-opacity:1;stroke-miterlimit:4;stroke-dasharray:4,4;stroke-dashoffset:0"
       d="m 550,100 0,450"
       id="pathb28161" />
    <path
       style="fill:none;stroke:#000000;stroke-width:1;stroke-linecap:butt;stroke-linejoin:miter;stroke-opacity:1;stroke-miterlimit:4;stroke-dasharray:4,4;stroke-dashoffset:0"
       d="m 500,100 0,450"
       id="pathb28162" />
    <path
       style="fill:none;stroke:#000000;stroke-width:1;stroke-linecap:butt;stroke-linejoin:miter;stroke-opacity:1;stroke-miterlimit:4;stroke-dasharray:4,4;stroke-dashoffset:0"
       d="m 450,100 0,450"
       id="pathb28163" />
    <path
       style="fill:none;stroke:#000000;stroke-width:1;stroke-linecap:butt;stroke-linejoin:miter;stroke-opacity:1;stroke-miterlimit:4;stroke-dasharray:4,4;stroke-dashoffset:0"
       d="m 400,100 0,450"
       id="pathb28164" />
    <path
       style="fill:none;stroke:#000000;stroke-width:1;stroke-linecap:butt;stroke-linejoin:miter;stroke-opacity:1;stroke-miterlimit:4;stroke-dasharray:4,4;stroke-dashoffset:0"
       d="m 350,100 0,450"
       id="pathb28165" />
    <path
       style="fill:none;stroke:#000000;stroke-width:1;stroke-linecap:butt;stroke-linejoin:miter;stroke-opacity:1;stroke-miterlimit:4;stroke-dasharray:4,4;stroke-dashoffset:0"
       d="m 300,100 0,450"
       id="pathb28166" />
    <path
       style="fill:none;stroke:#000000;stroke-width:1;stroke-linecap:butt;stroke-linejoin:miter;stroke-opacity:1;stroke-miterlimit:4;stroke-dasharray:4,4;stroke-dashoffset:0"
       d="m 250,100 0,450"
       id="pathb28167" />
    <path
       style="fill:none;stroke:#000000;stroke-width:1;stroke-linecap:butt;stroke-linejoin:miter;stroke-opacity:1;stroke-miterlimit:4;stroke-dasharray:4,4;stroke-dashoffset:0"
       d="m 200,100 0,450"
       id="pathb28168" />
    <path
       style="fill:none;stroke:#000000;stroke-width:1;stroke-linecap:butt;stroke-linejoin:miter;stroke-opacity:1;stroke-miterlimit:4;stroke-dasharray:4,4;stroke-dashoffset:0"
       d="m 150,100 0,450"
       id="pathb28169" />
    <path
       style="fill:none;stroke:#000000;stroke-width:1.5;stroke-linecap:butt;stroke-linejoin:miter;stroke-miterlimit:4;stroke-opacity:1;stroke-dasharray:none;stroke-dashoffset:0"
       d="m 100,0 0,550"
       id="pathb28169-7" />
    <path
       style="fill:none;stroke:#000000;stroke-width:1.5;stroke-linecap:butt;stroke-linejoin:miter;stroke-miterlimit:4;stroke-opacity:1;stroke-dasharray:none;stroke-dashoffset:0"
       d="m 100,550 550,0"
       id="path28169-9" />
    <path
       d="m 565,100 a 15,15 0 1 1 -30,0 15,15 0 1 1 30,0 z"
       sodipodi:type="arc"
       style="fill:#666666;fill-opacity:1;stroke:none"
       id="path4443-1"
       sodipodi:cx="550"
       sodipodi:cy="100"
       sodipodi:rx="15"
       sodipodi:ry="15" />
    <path
       d="m 465,100 a 15,15 0 1 1 -30,0 15,15 0 1 1 30,0 z"
       sodipodi:type="arc"
       style="fill:#666666;fill-opacity:1;stroke:none"
       id="path4443-2"
       sodipodi:cx="450"
       sodipodi:cy="100"
       sodipodi:rx="15"
       sodipodi:ry="15" />
    <path
       d="m 565,200 a 15,15 0 1 1 -30,0 15,15 0 1 1 30,0 z"
       sodipodi:type="arc"
       style="fill:#666666;fill-opacity:1;stroke:none"
       id="path4443-3"
       sodipodi:cx="550"
       sodipodi:cy="200"
       sodipodi:rx="15"
       sodipodi:ry="15" />
    <path
       d="m 515,250 a 15,15 0 1 1 -30,0 15,15 0 1 1 30,0 z"
       sodipodi:type="arc"
       style="fill:#ff6666;fill-opacity:1;stroke:none"
       id="path4443-4"
       sodipodi:cx="500"
       sodipodi:cy="250"
       sodipodi:rx="15"
       sodipodi:ry="15" />
    <path
       d="m 465,300 a 15,15 0 1 1 -30,0 15,15 0 1 1 30,0 z"
       sodipodi:type="arc"
       style="fill:#ff6666;fill-opacity:1;stroke:none"
       id="path4443-5"
       sodipodi:cx="450"
       sodipodi:cy="300"
       sodipodi:rx="15"
       sodipodi:ry="15" />
    <path
       d="m 315,400 a 15,15 0 1 1 -30,0 15,15 0 1 1 30,0 z"
       sodipodi:type="arc"
       style="fill:#ff6666;fill-opacity:1;stroke:none"
       id="path4443-6"
       sodipodi:cx="300"
       sodipodi:cy="400"
       sodipodi:rx="15"
       sodipodi:ry="15" />
    <path
       style="fill:none;stroke:#00c800;stroke-width:5;stroke-linecap:butt;stroke-linejoin:miter;stroke-opacity:1;stroke-miterlimit:4;stroke-dasharray:none"
       d="m 100.0051,300.80869 50.50763,0 0,48.48732 100.0051,0 0,150.51273 421.23361,0"
       id="path4706" />
    <path
       sodipodi:type="arc"
       style="fill:#ff6666;fill-opacity:1;stroke:none"
       id="path4443-2-1"
       sodipodi:cx="450"
       sodipodi:cy="100"
       sodipodi:rx="15"
       sodipodi:ry="15"
       d="m 465,100 a 15,15 0 1 1 -30,0 15,15 0 1 1 30,0 z"
       transform="translate(0.27422275,100.30616)" />
    <path
       sodipodi:type="arc"
       style="fill:#666666;fill-opacity:1;stroke:none"
       id="path4443-3-4"
       sodipodi:cx="550"
       sodipodi:cy="200"
       sodipodi:rx="15"
       sodipodi:ry="15"
       d="m 565,200 a 15,15 0 1 1 -30,0 15,15 0 1 1 30,0 z"
       transform="translate(0.27422275,100.30616)" />
    <path
       sodipodi:type="arc"
       style="fill:#ff6666;fill-opacity:1;stroke:none"
       id="path4443-4-2"
       sodipodi:cx="500"
       sodipodi:cy="250"
       sodipodi:rx="15"
       sodipodi:ry="15"
       d="m 515,250 a 15,15 0 1 1 -30,0 15,15 0 1 1 30,0 z"
       transform="translate(0.27422275,100.30616)" />
    <path
       sodipodi:type="arc"
       style="fill:#ff6666;fill-opacity:1;stroke:none"
       id="path4443-5-3"
       sodipodi:cx="450"
       sodipodi:cy="300"
       sodipodi:rx="15"
       sodipodi:ry="15"
       d="m 465,300 a 15,15 0 1 1 -30,0 15,15 0 1 1 30,0 z"
       transform="translate(0.27422275,100.30616)" />
    <path
       sodipodi:type="arc"
       style="fill:#008000;fill-opacity:1;stroke:none"
       id="path4443-6-2"
       sodipodi:cx="300"
       sodipodi:cy="400"
       sodipodi:rx="15"
       sodipodi:ry="15"
       d="m 315,400 a 15,15 0 1 1 -30,0 15,15 0 1 1 30,0 z"
       transform="translate(0.27422275,100.30616)" />
    <path
       sodipodi:type="arc"
       style="fill:#ff6666;fill-opacity:1;stroke:none"
       id="path4443-2-9"
       sodipodi:cx="450"
       sodipodi:cy="100"
       sodipodi:rx="15"
       sodipodi:ry="15"
       d="m 465,100 a 15,15 0 1 1 -30,0 15,15 0 1 1 30,0 z"
       transform="translate(-100.74103,0.30105837)" />
    <path
       sodipodi:type="arc"
       style="fill:#ff6666;fill-opacity:1;stroke:none"
       id="path4443-3-2"
       sodipodi:cx="550"
       sodipodi:cy="200"
       sodipodi:rx="15"
       sodipodi:ry="15"
       d="m 565,200 a 15,15 0 1 1 -30,0 15,15 0 1 1 30,0 z"
       transform="translate(-100.74103,0.30105837)" />
    <path
       sodipodi:type="arc"
       style="fill:#ff6666;fill-opacity:1;stroke:none"
       id="path4443-4-7"
       sodipodi:cx="500"
       sodipodi:cy="250"
       sodipodi:rx="15"
       sodipodi:ry="15"
       d="m 515,250 a 15,15 0 1 1 -30,0 15,15 0 1 1 30,0 z"
       transform="translate(-100.74103,0.30105837)" />
    <path
       sodipodi:type="arc"
       style="fill:#ff6666;fill-opacity:1;stroke:none"
       id="path4443-5-9"
       sodipodi:cx="450"
       sodipodi:cy="300"
       sodipodi:rx="15"
       sodipodi:ry="15"
       d="m 465,300 a 15,15 0 1 1 -30,0 15,15 0 1 1 30,0 z"
       transform="translate(-100.74103,0.30105837)" />
    <path
       sodipodi:type="arc"
       style="fill:#008000;fill-opacity:1;stroke:none"
       id="path4443-6-5"
       sodipodi:cx="300"
       sodipodi:cy="400"
       sodipodi:rx="15"
       sodipodi:ry="15"
       d="m 315,400 a 15,15 0 1 1 -30,0 15,15 0 1 1 30,0 z"
       transform="translate(-100.74103,0.30105837)" />
    <path
       sodipodi:type="arc"
       style="fill:#008000;fill-opacity:1;stroke:none"
       id="path4443-6-5-1"
       sodipodi:cx="300"
       sodipodi:cy="400"
       sodipodi:rx="15"
       sodipodi:ry="15"
       d="m 315,400 a 15,15 0 1 1 -30,0 15,15 0 1 1 30,0 z"
       transform="translate(-100.99995,99.808735)" />
    <path
       transform="translate(-100.48722,148.29096)"
       d="m 465,300 a 15,15 0 1 1 -30,0 15,15 0 1 1 30,0 z"
       sodipodi:type="arc"
       style="fill:#ff6666;fill-opacity:1;stroke:none"
       id="path4443-5-7"
       sodipodi:cx="450"
       sodipodi:cy="300"
       sodipodi:rx="15"
       sodipodi:ry="15" />
  </g>
</svg>
